<mxfile host="app.diagrams.net" modified="2023-04-29T07:33:02.319Z" agent="Mozilla/5.0 (Windows NT 10.0; Win64; x64) AppleWebKit/537.36 (KHTML, like Gecko) Chrome/112.0.0.0 Safari/537.36" etag="xN5kVYv_IZKnqtvZGFPh" version="21.2.3" type="device">
  <diagram name="Trang-1" id="blZCL7kR9lCSLr4cEKmK">
    <mxGraphModel dx="1290" dy="483" grid="1" gridSize="10" guides="1" tooltips="1" connect="1" arrows="1" fold="1" page="1" pageScale="1" pageWidth="827" pageHeight="1169" math="0" shadow="0">
      <root>
        <mxCell id="0" />
        <mxCell id="1" parent="0" />
        <mxCell id="gj4h8K5ZOYtmqNkOysX9-1" value="Người Dùng" style="shape=umlActor;verticalLabelPosition=bottom;verticalAlign=top;html=1;outlineConnect=0;" vertex="1" parent="1">
          <mxGeometry x="30" y="300" width="30" height="60" as="geometry" />
        </mxCell>
        <mxCell id="gj4h8K5ZOYtmqNkOysX9-2" value="" style="rounded=0;whiteSpace=wrap;html=1;" vertex="1" parent="1">
          <mxGeometry x="120" y="160" width="600" height="360" as="geometry" />
        </mxCell>
        <mxCell id="gj4h8K5ZOYtmqNkOysX9-4" value="Chọn Điểm Đến" style="text;align=center;fontStyle=1;verticalAlign=middle;spacingLeft=3;spacingRight=3;strokeColor=none;rotatable=0;points=[[0,0.5],[1,0.5]];portConstraint=eastwest;html=1;" vertex="1" parent="1">
          <mxGeometry x="370" y="170" width="80" height="26" as="geometry" />
        </mxCell>
        <mxCell id="gj4h8K5ZOYtmqNkOysX9-5" value="Chọn trạm &lt;br&gt;ở gần nhất khác" style="ellipse;whiteSpace=wrap;html=1;" vertex="1" parent="1">
          <mxGeometry x="210" y="420" width="120" height="50" as="geometry" />
        </mxCell>
        <mxCell id="gj4h8K5ZOYtmqNkOysX9-6" value="Chọn điểm &lt;br&gt;cần đến" style="ellipse;whiteSpace=wrap;html=1;" vertex="1" parent="1">
          <mxGeometry x="210" y="310" width="120" height="50" as="geometry" />
        </mxCell>
        <mxCell id="gj4h8K5ZOYtmqNkOysX9-8" value="Xác nhận chọn &lt;br&gt;điểm đến" style="ellipse;whiteSpace=wrap;html=1;" vertex="1" parent="1">
          <mxGeometry x="450" y="310" width="120" height="50" as="geometry" />
        </mxCell>
        <mxCell id="gj4h8K5ZOYtmqNkOysX9-10" value="" style="endArrow=none;html=1;rounded=0;entryX=0;entryY=0.5;entryDx=0;entryDy=0;" edge="1" parent="1" target="gj4h8K5ZOYtmqNkOysX9-6">
          <mxGeometry width="50" height="50" relative="1" as="geometry">
            <mxPoint x="60" y="340" as="sourcePoint" />
            <mxPoint x="110" y="290" as="targetPoint" />
          </mxGeometry>
        </mxCell>
        <mxCell id="gj4h8K5ZOYtmqNkOysX9-11" value="&amp;lt;&amp;lt;extend&amp;gt;&amp;gt;" style="html=1;verticalAlign=bottom;endArrow=block;edgeStyle=elbowEdgeStyle;elbow=vertical;curved=0;rounded=0;exitX=0.5;exitY=0;exitDx=0;exitDy=0;entryX=0.5;entryY=1;entryDx=0;entryDy=0;" edge="1" parent="1" source="gj4h8K5ZOYtmqNkOysX9-5" target="gj4h8K5ZOYtmqNkOysX9-6">
          <mxGeometry width="80" relative="1" as="geometry">
            <mxPoint x="490" y="270" as="sourcePoint" />
            <mxPoint x="570" y="270" as="targetPoint" />
          </mxGeometry>
        </mxCell>
        <mxCell id="gj4h8K5ZOYtmqNkOysX9-13" value="&amp;lt;&amp;lt;include&amp;gt;&amp;gt;" style="html=1;verticalAlign=bottom;endArrow=block;edgeStyle=elbowEdgeStyle;elbow=vertical;curved=0;rounded=0;exitX=0.5;exitY=0;exitDx=0;exitDy=0;" edge="1" parent="1" target="gj4h8K5ZOYtmqNkOysX9-8">
          <mxGeometry width="80" relative="1" as="geometry">
            <mxPoint x="330" y="330" as="sourcePoint" />
            <mxPoint x="330" y="270" as="targetPoint" />
          </mxGeometry>
        </mxCell>
      </root>
    </mxGraphModel>
  </diagram>
</mxfile>
